HIERARCHY
ROOT Hips
{
	OFFSET 0.00000 0.00000 0.00000
	CHANNELS 6 Xposition Yposition Zposition Zrotation Yrotation Xrotation 
	JOINT LHipJoint
	{
		OFFSET 0 0 0
		CHANNELS 3 Zrotation Yrotation Xrotation
		JOINT LeftUpLeg
		{
			OFFSET 1.57338 -1.94743 0.52196
			CHANNELS 3 Zrotation Yrotation Xrotation
			JOINT LeftLeg
			{
				OFFSET 2.60333 -7.15259 0.00000
				CHANNELS 3 Zrotation Yrotation Xrotation
				JOINT LeftFoot
				{
					OFFSET 2.77855 -7.63400 0.00000
					CHANNELS 3 Zrotation Yrotation Xrotation
					JOINT LeftToeBase
					{
						OFFSET 0.19847 -0.54529 2.28466
						CHANNELS 3 Zrotation Yrotation Xrotation
						End Site
						{
							OFFSET 0.00000 -0.00000 1.17993
						}
					}
				}
			}
		}
	}
	JOINT RHipJoint
	{
		OFFSET 0 0 0
		CHANNELS 3 Zrotation Yrotation Xrotation
		JOINT RightUpLeg
		{
			OFFSET -1.61527 -1.94743 0.52196
			CHANNELS 3 Zrotation Yrotation Xrotation
			JOINT RightLeg
			{
				OFFSET -2.53829 -6.97390 0.00000
				CHANNELS 3 Zrotation Yrotation Xrotation
				JOINT RightFoot
				{
					OFFSET -2.80762 -7.71387 0.00000
					CHANNELS 3 Zrotation Yrotation Xrotation
					JOINT RightToeBase
					{
						OFFSET -0.30536 -0.83898 2.28801
						CHANNELS 3 Zrotation Yrotation Xrotation
						End Site
						{
							OFFSET -0.00000 -0.00000 1.21323
						}
					}
				}
			}
		}
	}
	JOINT LowerBack
	{
		OFFSET 0 0 0
		CHANNELS 3 Zrotation Yrotation Xrotation
		JOINT Spine
		{
			OFFSET -0.04381 1.99497 -0.19778
			CHANNELS 3 Zrotation Yrotation Xrotation
			JOINT Spine1
			{
				OFFSET -0.01959 2.01295 -0.04372
				CHANNELS 3 Zrotation Yrotation Xrotation
				JOINT Neck
				{
					OFFSET 0 0 0
					CHANNELS 3 Zrotation Yrotation Xrotation
					JOINT Neck1
					{
						OFFSET -0.05459 1.76913 0.09708
						CHANNELS 3 Zrotation Yrotation Xrotation
						JOINT Head
						{
							OFFSET 0.09461 1.77368 -0.11172
							CHANNELS 3 Zrotation Yrotation Xrotation
							End Site
							{
								OFFSET 0.03812 1.78157 -0.04834
							}
						}
					}
				}
				JOINT LeftShoulder
				{
					OFFSET 0 0 0
					CHANNELS 3 Zrotation Yrotation Xrotation
					JOINT LeftArm
					{
						OFFSET 3.50922 1.24034 -0.28866
						CHANNELS 3 Zrotation Yrotation Xrotation
						JOINT LeftForeArm
						{
							OFFSET 5.40188 -0.00000 0.00000
							CHANNELS 3 Zrotation Yrotation Xrotation
							JOINT LeftHand
							{
								OFFSET 3.68559 -0.00000 0.00000
								CHANNELS 3 Zrotation Yrotation Xrotation
								JOINT LeftFingerBase
								{
									OFFSET 0 0 0
									CHANNELS 3 Zrotation Yrotation Xrotation
									JOINT LeftHandIndex1
									{
										OFFSET 0.61753 -0.00000 0.00000
										CHANNELS 3 Zrotation Yrotation Xrotation
										End Site
										{
											OFFSET 0.49787 -0.00000 0.00000
										}
									}
								}
								JOINT LThumb
								{
									OFFSET 0 0 0
									CHANNELS 3 Zrotation Yrotation Xrotation
									End Site
									{
										OFFSET 0.50547 -0.00000 0.50547
									}
								}
							}
						}
					}
				}
				JOINT RightShoulder
				{
					OFFSET 0 0 0
					CHANNELS 3 Zrotation Yrotation Xrotation
					JOINT RightArm
					{
						OFFSET -2.95373 1.39649 -0.27346
						CHANNELS 3 Zrotation Yrotation Xrotation
						JOINT RightForeArm
						{
							OFFSET -6.10670 -0.00000 -0.00000
							CHANNELS 3 Zrotation Yrotation Xrotation
							JOINT RightHand
							{
								OFFSET -3.63052 -0.00000 0.00000
								CHANNELS 3 Zrotation Yrotation Xrotation
								JOINT RightFingerBase
								{
									OFFSET 0 0 0
									CHANNELS 3 Zrotation Yrotation Xrotation
									JOINT RightHandIndex1
									{
										OFFSET -0.58385 -0.00000 0.00000
										CHANNELS 3 Zrotation Yrotation Xrotation
										End Site
										{
											OFFSET -0.47071 -0.00000 0.00000
										}
									}
								}
								JOINT RThumb
								{
									OFFSET 0 0 0
									CHANNELS 3 Zrotation Yrotation Xrotation
									End Site
									{
										OFFSET -0.47790 -0.00000 0.47790
									}
								}
							}
						}
					}
				}
			}
		}
	}
}
MOTION
Frames: 17
Frame Time: 0.033333
-2.16 17.30 3.66 718.92 -61.31 -706.43 0.00 0.00 0.00 14.65 -31.74 -52.56 6.56 14.95 47.18 0.18 -2.52 9.32 2.29 -9.44 -27.18 0.00 0.00 0.00 7.85 2.75 -1.58 -6.29 -14.71 46.15 -1.49 -6.73 -26.34 -0.43 4.21 -11.66 -3.63 7.59 11.81 -4.63 9.27 4.18 -4.04 4.55 -1.95 -12.75 1.52 -1.15 -13.43 5.47 23.54 -2.01 0.25 7.76 0.00 -0.00 0.00 -85.05 -23.92 51.84 132.63 -51.88 -95.91 -0.00 0.00 -57.26 -24.38 22.64 -9.90 -7.12 0.00 -0.00 -48.56 46.60 -2.52 0.00 -0.00 0.00 85.45 56.87 37.20 -83.22 59.83 -54.13 0.00 -0.00 -82.12 6.73 5.69 0.67 7.12 -0.00 -0.00 24.24 -24.14 13.40
-1.99 16.97 3.66 721.64 -59.96 -711.84 0.00 0.00 0.00 9.53 -31.80 -46.84 7.24 15.53 49.79 0.01 0.36 -2.00 4.83 -13.19 -40.07 0.00 0.00 0.00 6.94 4.84 0.59 -7.69 -15.89 51.45 -0.98 -2.94 -19.95 -0.80 5.71 -15.93 -1.85 7.13 11.64 -2.94 8.99 4.11 -3.20 4.43 -1.95 -12.74 0.53 -1.74 -10.22 3.43 21.74 -1.03 -0.30 7.12 0.00 -0.00 0.00 -84.67 -23.28 50.78 134.58 -50.97 -97.43 -0.00 0.00 -56.67 -23.81 23.56 -10.00 -7.12 0.00 -0.00 -48.84 47.38 -3.75 0.00 -0.00 0.00 85.26 50.25 42.62 -83.89 59.86 -54.71 0.00 -0.00 -78.99 6.83 7.36 0.88 7.12 -0.00 -0.00 23.99 -22.60 14.18
-1.83 16.65 3.59 723.86 -63.86 -717.29 0.00 0.00 0.00 5.78 -27.87 -40.13 6.51 14.90 46.99 0.20 -2.51 -7.94 3.57 -11.56 -34.19 0.00 0.00 0.00 5.89 10.78 2.99 -7.37 -15.63 50.24 -0.68 3.86 -14.73 -3.19 10.99 -32.25 -1.78 8.11 12.56 -2.37 10.26 4.13 -2.95 5.04 -2.48 -11.54 -0.27 -2.47 -6.67 1.39 17.15 -0.14 -0.57 5.67 -0.00 0.00 0.00 -84.48 -23.02 49.50 137.46 -49.50 -99.65 -0.00 0.00 -55.60 -24.06 23.80 -10.21 -7.12 0.00 -0.00 -49.20 47.52 -4.02 -0.00 0.00 0.00 86.61 41.04 44.31 -81.08 59.70 -52.29 0.00 -0.00 -76.83 7.29 6.78 0.87 7.12 -0.00 -0.00 24.40 -23.13 14.15
-1.56 16.49 3.39 728.81 -65.67 -724.14 0.00 0.00 0.00 2.16 -24.19 -38.46 6.39 14.79 46.51 0.17 -2.87 -7.30 3.75 -11.81 -35.07 0.00 0.00 0.00 2.92 11.48 3.94 -7.92 -16.06 52.26 -0.65 4.94 -14.32 -2.98 10.66 -31.14 -3.10 7.45 14.94 -2.02 9.09 3.99 -2.06 4.43 -4.19 -11.27 0.05 -3.90 -2.92 1.22 12.06 0.98 -0.10 4.26 -0.00 -0.00 0.00 -83.57 -22.45 46.17 140.69 -47.66 -102.07 -0.00 0.00 -54.92 -23.16 23.92 -9.84 -7.12 0.00 -0.00 -48.63 47.75 -4.29 -0.00 -0.00 0.00 87.81 31.79 45.50 -79.48 59.58 -50.91 0.00 -0.00 -75.92 6.68 6.39 0.75 7.12 -0.00 -0.00 24.07 -23.50 13.68
-1.29 16.63 3.16 725.26 -68.76 -721.83 0.00 0.00 0.00 3.50 -20.51 -36.95 5.82 14.25 44.26 0.08 -1.64 -5.04 3.79 -11.87 -35.28 0.00 0.00 0.00 4.01 13.10 5.44 -6.93 -15.27 48.61 -0.60 8.23 -14.15 -2.77 10.31 -30.00 -1.67 6.52 15.44 -0.81 8.12 4.47 -1.41 3.94 -3.94 -10.20 1.07 -4.99 -1.28 2.30 7.30 1.46 0.78 3.16 0.00 0.00 0.00 -84.08 -20.96 44.00 143.09 -46.13 -103.83 -0.00 0.00 -53.34 -23.45 24.33 -10.13 -7.12 0.00 -0.00 -49.16 48.01 -4.76 0.00 0.00 0.00 87.78 25.22 46.21 -78.82 59.52 -50.34 0.00 -0.00 -74.17 7.63 6.50 0.87 7.12 -0.00 -0.00 24.69 -23.38 14.19
-1.03 16.99 2.97 717.80 -74.24 -713.93 0.00 0.00 0.00 6.94 -19.29 -33.33 4.61 12.93 39.11 -0.04 3.93 -3.05 3.89 -12.01 -35.77 0.00 0.00 0.00 3.89 15.36 4.97 -5.17 -13.58 41.57 0.17 13.85 -7.51 -1.82 8.49 -24.21 -0.03 5.79 14.29 0.06 7.43 4.91 -1.13 3.60 -2.78 -9.17 2.85 -5.70 0.52 4.48 4.34 1.91 2.08 2.16 -0.00 0.00 0.00 -85.29 -17.87 42.01 144.76 -44.98 -105.02 -0.00 0.00 -50.80 -23.10 24.19 -9.91 -7.12 0.00 -0.00 -48.80 47.96 -4.63 -0.00 0.00 0.00 87.26 20.51 47.38 -78.50 59.49 -50.06 0.00 -0.00 -70.20 10.15 5.89 1.05 7.12 -0.00 -0.00 26.47 -23.84 15.14
-0.71 17.48 2.75 710.41 -79.80 -705.45 0.00 0.00 0.00 9.48 -21.60 -28.89 3.45 11.39 33.61 -0.50 13.15 -0.12 2.78 -10.34 -30.07 0.00 0.00 0.00 1.63 17.28 2.48 -3.65 -11.67 34.59 0.80 15.66 6.63 -0.37 3.93 -10.88 -0.62 5.17 14.90 0.25 6.51 4.82 -0.52 3.13 -3.30 -4.97 4.79 -6.47 -1.54 6.88 3.28 0.60 3.31 2.02 -0.00 0.00 0.00 -85.77 -14.95 39.33 146.68 -43.58 -106.36 -0.00 0.00 -48.75 -21.94 23.56 -9.14 -7.12 0.00 -0.00 -47.46 47.67 -4.01 -0.00 0.00 0.00 86.18 17.43 47.81 -82.16 59.77 -53.22 0.00 -0.00 -66.99 9.20 5.99 0.97 7.12 -0.00 -0.00 25.83 -23.79 14.72
-0.43 17.88 2.51 698.40 -84.02 -692.46 0.00 0.00 0.00 10.17 -22.27 -27.77 3.55 11.54 34.11 -0.05 6.13 2.60 1.51 -7.76 -22.00 0.00 0.00 0.00 0.34 19.51 -0.92 -3.33 -11.22 33.02 0.47 12.02 5.29 -0.80 5.72 -15.96 -1.67 4.32 14.79 0.18 5.22 5.07 0.24 2.48 -3.07 -3.06 6.44 -5.70 -1.56 8.85 1.63 0.27 4.36 1.39 -0.00 0.00 0.00 -84.49 -14.29 36.55 149.39 -41.41 -108.19 -0.00 0.00 -47.24 -20.33 23.10 -8.27 -7.12 0.00 -0.00 -45.92 47.58 -3.67 -0.00 0.00 0.00 84.78 17.18 46.47 -88.74 59.99 -58.91 0.00 -0.00 -65.75 9.79 5.81 1.00 7.12 -0.00 -0.00 26.25 -23.92 14.93
-0.12 17.98 2.22 666.21 -86.30 -659.96 0.00 0.00 0.00 8.61 -17.28 -31.72 5.84 14.27 44.33 0.01 -2.69 4.50 1.57 -7.90 -22.43 0.00 0.00 0.00 1.46 21.97 -4.30 -4.55 -12.86 38.85 -0.36 -3.70 -13.37 -0.87 5.96 -16.67 -2.15 3.52 14.96 0.04 4.08 4.96 0.54 1.91 -3.27 -1.32 7.50 -3.96 -1.42 10.10 1.42 -0.01 5.02 1.10 -0.00 -0.00 0.00 -80.50 -16.01 33.30 151.70 -39.39 -109.69 -0.00 0.00 -44.90 -17.88 22.51 -7.04 -7.12 0.00 -0.00 -43.61 47.49 -3.29 -0.00 -0.00 0.00 83.35 17.99 43.42 -97.12 59.81 -66.16 0.00 -0.00 -63.34 11.78 6.02 1.25 7.12 -0.00 -0.00 27.51 -23.65 16.04
0.17 17.86 1.97 620.44 -86.56 -615.68 0.00 0.00 0.00 4.90 -11.23 -34.55 9.08 16.86 56.36 -0.10 -5.95 3.93 1.53 -7.80 -22.11 0.00 0.00 0.00 2.93 21.80 -5.97 -6.17 -14.59 45.66 -0.45 -4.14 -14.92 -0.81 5.76 -16.08 -1.89 2.98 16.31 -0.11 3.34 4.83 0.31 1.54 -4.08 -0.74 8.02 -2.39 -0.73 10.75 2.75 0.09 5.34 1.24 -0.00 0.00 0.00 -77.36 -17.92 31.48 153.03 -38.15 -110.52 -0.00 0.00 -42.77 -15.98 22.28 -6.19 -7.12 0.00 -0.00 -41.96 47.59 -3.23 -0.00 0.00 0.00 81.93 19.18 39.74 -104.46 59.20 -72.49 0.00 -0.00 -59.38 12.96 6.61 1.52 7.12 -0.00 -0.00 28.13 -23.05 16.96
0.35 17.60 1.68 573.47 -85.01 -570.81 0.00 0.00 0.00 -0.42 -6.34 -33.06 10.61 17.74 61.51 -0.16 -7.93 -0.71 0.84 -5.84 -16.32 0.00 0.00 0.00 4.30 22.12 -4.13 -6.73 -15.10 47.83 -0.17 1.79 -7.28 -1.64 8.06 -22.91 -3.70 3.18 16.97 -0.01 3.27 4.75 1.42 1.51 -4.63 -0.79 8.68 -0.82 -0.71 11.60 3.96 0.07 5.76 1.35 0.00 0.00 0.00 -77.69 -15.25 31.06 154.63 -36.58 -111.49 -0.00 0.00 -41.71 -15.02 22.36 -5.83 -7.12 0.00 -0.00 -41.24 47.79 -3.40 0.00 0.00 0.00 80.84 20.31 37.55 -107.36 58.83 -74.97 0.00 -0.00 -56.96 11.74 8.73 1.81 7.12 -0.00 -0.00 26.91 -21.19 17.35
0.41 17.32 1.41 565.62 -82.92 -563.49 0.00 0.00 0.00 -2.71 -2.83 -31.07 10.41 17.63 60.86 0.81 1.19 -17.52 1.13 -6.74 -18.95 0.00 0.00 0.00 6.83 19.68 -0.20 -5.67 -14.10 43.65 -0.79 -1.17 -17.28 -2.20 9.27 -26.64 -3.52 2.76 15.46 0.12 2.85 4.48 1.59 1.31 -4.08 -1.04 9.32 -1.57 -0.73 12.48 5.76 0.22 6.16 2.05 0.00 -0.00 0.00 -79.78 -9.98 31.99 155.23 -35.97 -111.84 -0.00 0.00 -38.86 -15.16 21.70 -5.72 -7.12 0.00 -0.00 -40.93 47.25 -2.72 0.00 -0.00 0.00 80.55 19.54 37.22 -105.97 59.01 -73.79 0.00 -0.00 -55.29 11.56 8.00 1.63 7.12 -0.00 -0.00 26.95 -21.86 16.90
0.47 17.18 1.19 566.02 -80.78 -563.11 0.00 0.00 0.00 -0.18 -3.77 -29.77 10.06 17.44 59.67 1.00 0.61 -19.09 1.42 -7.55 -21.35 0.00 0.00 0.00 8.20 17.65 1.40 -4.41 -12.69 38.22 -1.71 1.56 -24.28 -1.76 8.35 -23.78 -2.03 2.59 13.91 0.22 2.95 3.85 0.88 1.38 -3.84 -0.87 9.82 -2.06 -0.92 13.16 6.09 0.19 6.49 2.27 0.00 -0.00 0.00 -82.22 -5.97 33.01 154.08 -37.13 -111.16 -0.00 0.00 -35.87 -16.97 21.42 -6.36 -7.12 0.00 -0.00 -42.18 46.76 -2.23 0.00 -0.00 0.00 80.78 17.06 37.66 -102.74 59.38 -71.01 0.00 -0.00 -54.57 7.93 6.86 0.95 7.12 -0.00 -0.00 24.81 -23.03 14.50
0.61 17.30 1.12 554.48 -77.50 -551.55 0.00 0.00 0.00 1.28 -3.69 -29.59 10.23 17.54 60.25 0.39 -1.89 -11.24 1.97 -8.79 -25.15 0.00 0.00 0.00 6.17 18.48 0.63 -3.90 -12.02 35.81 -1.57 3.90 -22.75 -1.77 8.38 -23.86 -1.14 3.39 14.01 -0.53 4.06 4.26 -0.58 1.91 -3.39 -0.79 9.94 -2.80 -2.27 13.41 5.56 -0.19 6.58 2.34 0.00 0.00 0.00 -82.66 -7.50 29.70 153.53 -37.66 -110.83 -0.00 0.00 -34.90 -17.63 21.33 -6.59 -7.12 0.00 -0.00 -42.63 46.60 -2.06 0.00 0.00 0.00 81.08 15.60 38.64 -102.37 59.41 -70.69 0.00 -0.00 -55.16 4.94 7.06 0.61 7.12 -0.00 -0.00 22.77 -22.92 13.15
0.76 17.63 1.16 541.30 -73.34 -537.93 0.00 0.00 0.00 -0.43 -0.33 -31.73 10.05 17.44 59.65 -0.01 -2.18 0.31 1.66 -8.13 -23.11 0.00 0.00 0.00 1.38 20.21 -3.19 -3.89 -12.01 35.78 -0.88 4.82 -16.73 -1.65 8.08 -22.97 -1.91 4.36 14.51 -1.60 5.12 4.53 -1.47 2.42 -3.34 -0.92 10.33 -2.39 -4.02 14.01 5.29 -0.71 6.84 2.32 0.00 -0.00 0.00 -80.36 -12.32 20.88 156.19 -34.97 -112.40 -0.00 0.00 -42.52 -16.27 21.40 -6.08 -7.12 0.00 -0.00 -41.62 46.85 -2.29 0.00 -0.00 0.00 81.57 16.06 38.72 -108.05 58.73 -75.57 0.00 -0.00 -55.43 5.29 7.89 0.73 7.12 -0.00 -0.00 22.87 -22.15 13.66
0.88 18.06 1.30 532.33 -70.00 -528.62 0.00 0.00 0.00 -3.58 1.47 -33.07 9.22 16.95 56.84 0.08 -4.32 8.53 0.79 -5.68 -15.85 0.00 0.00 0.00 -3.82 20.97 -8.57 -4.27 -12.51 37.57 -0.24 2.10 -8.74 -1.76 8.35 -23.77 -3.56 4.58 15.73 -2.20 5.02 4.60 -1.26 2.34 -4.00 -1.44 11.09 -2.16 -4.66 15.11 6.25 -0.78 7.32 2.64 -0.00 0.00 0.00 -75.40 -17.95 8.72 159.59 -31.13 -114.26 -0.00 0.00 -47.04 -14.48 20.89 -5.26 -7.12 0.00 -0.00 -39.87 46.70 -1.98 -0.00 0.00 0.00 81.50 18.76 37.81 -117.22 57.01 -83.34 0.00 -0.00 -55.46 11.21 7.75 1.53 7.12 -0.00 -0.00 26.77 -22.11 16.59
0.98 18.34 1.46 532.34 -67.81 -528.12 0.00 0.00 0.00 -3.38 1.58 -33.23 8.34 16.36 53.76 -0.12 -8.06 8.67 0.72 -5.41 -15.09 0.00 0.00 0.00 -5.35 21.72 -13.66 -5.09 -13.48 41.20 0.09 -6.17 -5.74 -0.85 5.88 -16.44 -2.99 4.40 17.11 -1.86 4.80 4.63 -1.27 2.22 -4.69 -0.85 11.72 -1.16 -5.78 15.94 5.92 -1.25 7.74 2.53 -0.00 0.00 0.00 -68.30 -21.50 2.25 162.20 -27.90 -115.55 -0.00 0.00 -46.61 -10.02 19.63 -3.40 -7.12 0.00 -0.00 -35.50 46.28 -1.28 -0.00 0.00 0.00 80.69 22.16 35.74 -125.63 54.61 -90.30 0.00 -0.00 -55.81 13.80 6.56 1.61 7.12 -0.00 -0.00 28.67 -23.05 17.38
